# xmcd
#
# Track frame offsets: 
#        150
#        20825
#        52935
#        81715
#        100092
#        127212
#
# Disc length: 2461 seconds
#
# Revision: 1
# Processed by: cddbd v1.5.2PL0 Copyright (c) Steve Scherf et al.
# Submitted via: ExactAudioCopyFreeDBPlugin 1.0
#
DISCID=51099b06
DTITLE=John Lee Hooker - Mill Valley '92
DYEAR=1992
DGENRE=Blues
TTITLE0=Father was a Jockey
TTITLE1=Crawlin' Kingsnake
TTITLE2=I'm in the mood
TTITLE3=I want to hug you
TTITLE4=Mr Lucky
TTITLE5=Boogie Chillun
EXTD=
EXTT0=
EXTT1=
EXTT2=
EXTT3=
EXTT4=
EXTT5=
PLAYORDER=
